# xmcd
#
# Track frame offsets: 
#        150
#        10926
#        24574
#        38057
#        50860
#        62788
#        74924
#        87898
#        100772
#        113518
#        126187
#        138518
#        152390
#        164359
#        178796
#        191286
#        204429
#        219401
#        235614
#        249486
#
# Disc length: 3494 seconds
#
# Revision: 1
# Processed by: cddbd v1.5.2PL0 Copyright (c) Steve Scherf et al.
# Submitted via: ExactAudioCopyFreeDBPlugin 1.0
#
DISCID=110da414
DTITLE=Bukka White, Josh White - ABC Of The Blues - Vol. 51 White
DYEAR=2010
DGENRE=Blues
TTITLE0=Bukka White - Good Gin Blues
TTITLE1=Bukka White - Shake ´em On Down
TTITLE2=Bukka White - When Can I Change My Clothes?
TTITLE3=Bukka White - High Fever Blues
TTITLE4=Bukka White - Bukka´s Jitterbug Swing
TTITLE5=Bukka White - District Attorney Blues
TTITLE6=Bukka White - Strange Place Blues
TTITLE7=Bukka White - Sleepy My Blues
TTITLE8=Bukka White - Pinebluff, Arkansas
TTITLE9=Bukka White - Fixin´ To Die Blues
TTITLE10=Josh White - Uncle Sam Says
TTITLE11=Josh White - Jim Crow Train
TTITLE12=Josh White - Bad Housing Blues
TTITLE13=Josh White - Southern Exposure
TTITLE14=Josh White - Defence Factory Blues
TTITLE15=Josh White - Prison Bound
TTITLE16=Josh White - Hard Time Blues
TTITLE17=Josh White - Monday, Tuesday, Wednesday
TTITLE18=Josh White - One Meat Ball
TTITLE19=Josh White - Hard Times Blues
EXTD=
EXTT0=
EXTT1=
EXTT2=
EXTT3=
EXTT4=
EXTT5=
EXTT6=
EXTT7=
EXTT8=
EXTT9=
EXTT10=
EXTT11=
EXTT12=
EXTT13=
EXTT14=
EXTT15=
EXTT16=
EXTT17=
EXTT18=
EXTT19=
PLAYORDER=
